<svg xmlns="http://www.w3.org/2000/svg" viewBox="0 0 1024 1024" width="1024" height="1024"><defs><radialGradient id="vol" cx="0.38" cy="0.3" r="0.85"><stop offset="0" stop-color="#c4c4c4"/><stop offset="0.5" stop-color="#8c8c8c"/><stop offset="1" stop-color="#5c5c5c"/></radialGradient><linearGradient id="hair" x1="0" y1="0" x2="0.35" y2="1"><stop offset="0" stop-color="#a8a8a8"/><stop offset="0.55" stop-color="#8a8a8a"/><stop offset="1" stop-color="#626262"/></linearGradient><linearGradient id="cloth" x1="0" y1="0" x2="0.3" y2="1"><stop offset="0" stop-color="#a6a6a6"/><stop offset="0.6" stop-color="#8c8c8c"/><stop offset="1" stop-color="#666666"/></linearGradient><filter id="soft" x="-20%" y="-20%" width="140%" height="140%"><feGaussianBlur stdDeviation="14"/></filter><filter id="softer" x="-20%" y="-20%" width="140%" height="140%"><feGaussianBlur stdDeviation="6"/></filter><radialGradient id="iris" cx="0.4" cy="0.35" r="0.7"><stop offset="0" stop-color="#8a5530"/><stop offset="1" stop-color="#2b160b"/></radialGradient></defs><clipPath id="e420o"><ellipse cx="420" cy="460" rx="56" ry="60"/></clipPath><ellipse cx="420" cy="460" rx="56" ry="60" fill="#ffffff"/><g clip-path="url(#e420o)"><circle cx="420" cy="464" r="40" fill="url(#iris)"/><circle cx="420" cy="464" r="18" fill="#120805"/><ellipse cx="420" cy="406" rx="56" ry="16" fill="#000" opacity="0.12"/></g><circle cx="406" cy="448" r="12" fill="#fff"/><circle cx="434" cy="478" r="6" fill="#fff"/><path d="M 360 456 C 370 392 470 392 480 456" fill="none" stroke="#1c1210" stroke-width="9" stroke-linecap="round"/><path d="M 370 446 l -26 -14 M 380 418 l -20 -22 M 398 404 l -10 -26" stroke="#1c1210" stroke-width="9" stroke-linecap="round"/><clipPath id="e604o"><ellipse cx="604" cy="460" rx="56" ry="60"/></clipPath><ellipse cx="604" cy="460" rx="56" ry="60" fill="#ffffff"/><g clip-path="url(#e604o)"><circle cx="604" cy="464" r="40" fill="url(#iris)"/><circle cx="604" cy="464" r="18" fill="#120805"/><ellipse cx="604" cy="406" rx="56" ry="16" fill="#000" opacity="0.12"/></g><circle cx="590" cy="448" r="12" fill="#fff"/><circle cx="618" cy="478" r="6" fill="#fff"/><path d="M 544 456 C 554 392 654 392 664 456" fill="none" stroke="#1c1210" stroke-width="9" stroke-linecap="round"/><path d="M 654 446 l 26 -14 M 644 418 l 20 -22 M 626 404 l 10 -26" stroke="#1c1210" stroke-width="9" stroke-linecap="round"/></svg>
