<svg xmlns="http://www.w3.org/2000/svg" viewBox="0 0 120 120">
  <defs>
    <radialGradient id="cover" cx="50%" cy="20%" r="90%">
      <stop offset="0" stop-color="#2fd3a1"/>
      <stop offset=".55" stop-color="#149a75"/>
      <stop offset="1" stop-color="#06564a"/>
    </radialGradient>
    <linearGradient id="page" x1="0" y1="0" x2="0" y2="1">
      <stop offset="0" stop-color="#fff6dd"/>
      <stop offset=".6" stop-color="#f7dc9a"/>
      <stop offset="1" stop-color="#dcab4d"/>
    </linearGradient>
    <linearGradient id="stand" x1="0" y1="0" x2="0" y2="1">
      <stop offset="0" stop-color="#a4702f"/>
      <stop offset="1" stop-color="#57320f"/>
    </linearGradient>
    <filter id="shadow" x="-25%" y="-25%" width="150%" height="160%">
      <feDropShadow dx="0" dy="5" stdDeviation="4" flood-color="#03211b" flood-opacity=".45"/>
    </filter>
  </defs>
  <g filter="url(#shadow)">
    <g stroke="url(#stand)" stroke-width="7" stroke-linecap="round" fill="none">
      <path d="M60 72 34 102"/>
      <path d="M60 72 86 102"/>
      <path d="M43 92 77 92"/>
    </g>
    <path
      fill="url(#cover)"
      d="M60 44C49 37 33 35 19 39l-2 34c15-4 31-2 43 4 12-6 28-8 43-4l-2-34c-14-4-30-2-41 5z"
    />
    <path
      fill="url(#page)"
      d="M60 48c-10-6-24-8-36-4l-2 26c12-4 27-2 38 3 11-5 26-7 38-3l-2-26c-12-4-26-2-36 4z"
    />
    <path d="M60 48v25" stroke="#b8801c" stroke-width="2" opacity=".7" fill="none" />
    <g stroke="#b8801c" stroke-width="2.5" stroke-linecap="round" opacity=".55" fill="none">
      <path d="M32 53 55 55"/>
      <path d="M31 60 55 61"/>
      <path d="M31 66 55 66"/>
      <path d="M88 53 65 55"/>
      <path d="M89 60 65 61"/>
      <path d="M89 66 65 66"/>
    </g>
    <g stroke="#f2c14e" stroke-width="4" stroke-linecap="round" fill="none">
      <path d="M60 30V20"/>
      <path d="M41 34 35 26"/>
      <path d="M79 34 85 26"/>
    </g>
  </g>
</svg>
