<svg xmlns="http://www.w3.org/2000/svg" viewBox="0 0 1024 1024" width="1024" height="1024"><defs><radialGradient id="vol" cx="0.38" cy="0.3" r="0.85"><stop offset="0" stop-color="#c4c4c4"/><stop offset="0.5" stop-color="#8c8c8c"/><stop offset="1" stop-color="#5c5c5c"/></radialGradient><linearGradient id="hair" x1="0" y1="0" x2="0.35" y2="1"><stop offset="0" stop-color="#a8a8a8"/><stop offset="0.55" stop-color="#8a8a8a"/><stop offset="1" stop-color="#626262"/></linearGradient><linearGradient id="cloth" x1="0" y1="0" x2="0.3" y2="1"><stop offset="0" stop-color="#a6a6a6"/><stop offset="0.6" stop-color="#8c8c8c"/><stop offset="1" stop-color="#666666"/></linearGradient><filter id="soft" x="-20%" y="-20%" width="140%" height="140%"><feGaussianBlur stdDeviation="14"/></filter><filter id="softer" x="-20%" y="-20%" width="140%" height="140%"><feGaussianBlur stdDeviation="6"/></filter></defs><ellipse cx="268" cy="510" rx="42" ry="72" fill="url(#vol)"/><ellipse cx="274" cy="512" rx="20" ry="42" fill="#6e6e6e"/><ellipse cx="756" cy="510" rx="42" ry="72" fill="url(#vol)"/><ellipse cx="750" cy="512" rx="20" ry="42" fill="#6e6e6e"/><path d="M 277 480 C 277 265 374 170 512 170 C 650 170 747 265 747 480 C 745 590 625 718 545 752 C 527 759 497 759 479 752 C 399 718 279 590 277 480 Z" fill="url(#vol)"/><path d="M 277 480 C 277 265 374 170 512 170 C 650 170 747 265 747 480 C 745 590 625 718 545 752 C 527 759 497 759 479 752 C 399 718 279 590 277 480 Z" fill="none" stroke="#5a5a5a" stroke-width="18" opacity="0.35" filter="url(#softer)"/><ellipse cx="450" cy="280" rx="120" ry="70" fill="#d6d6d6" opacity="0.35" filter="url(#soft)"/><ellipse cx="512" cy="548" rx="40" ry="14" fill="#000" opacity="0.12" filter="url(#softer)"/><ellipse cx="512" cy="532" rx="28" ry="21" fill="#7e7e7e"/><ellipse cx="503" cy="524" rx="9" ry="7" fill="#c8c8c8"/></svg>
