<svg xmlns="http://www.w3.org/2000/svg" viewBox="0 0 1024 1024" width="1024" height="1024"><defs><radialGradient id="vol" cx="0.38" cy="0.3" r="0.85"><stop offset="0" stop-color="#c4c4c4"/><stop offset="0.5" stop-color="#8c8c8c"/><stop offset="1" stop-color="#5c5c5c"/></radialGradient><linearGradient id="hair" x1="0" y1="0" x2="0.35" y2="1"><stop offset="0" stop-color="#a8a8a8"/><stop offset="0.55" stop-color="#8a8a8a"/><stop offset="1" stop-color="#626262"/></linearGradient><linearGradient id="cloth" x1="0" y1="0" x2="0.3" y2="1"><stop offset="0" stop-color="#a6a6a6"/><stop offset="0.6" stop-color="#8c8c8c"/><stop offset="1" stop-color="#666666"/></linearGradient><filter id="soft" x="-20%" y="-20%" width="140%" height="140%"><feGaussianBlur stdDeviation="14"/></filter><filter id="softer" x="-20%" y="-20%" width="140%" height="140%"><feGaussianBlur stdDeviation="6"/></filter></defs><path d="M 48 1024 C 68 884 214 834 334 816 L 428 808 L 470 930 L 446 1024 Z" fill="url(#cloth)"/><path d="M 428 808 L 470 930 L 398 880 L 380 830 Z" fill="#a2a2a2"/><g transform="translate(1024 0) scale(-1 1)"><path d="M 48 1024 C 68 884 214 834 334 816 L 428 808 L 470 930 L 446 1024 Z" fill="url(#cloth)"/><path d="M 428 808 L 470 930 L 398 880 L 380 830 Z" fill="#a2a2a2"/></g></svg>
